<?xml version="1.0" encoding="utf-8" ?>
<svg xmlns="http://www.w3.org/2000/svg" xmlns:xlink="http://www.w3.org/1999/xlink" width="626" height="100">
	<path fill="#010101" transform="matrix(1 0 0 -1 307.867 344.199)" d="M32.9877 322.755L22.4532 322.755L22.4532 332.924L32.9877 332.924L32.9877 322.755ZM32.9877 311.755L22.4532 311.755L22.4532 321.923L32.9877 321.923L32.9877 311.755ZM32.9877 300.748L22.4532 300.748L22.4532 310.917L32.9877 310.917L32.9877 300.748ZM32.9877 267.74L22.4532 267.74L22.4532 277.903L32.9877 277.903L32.9877 267.74ZM32.9877 256.733L22.4532 256.733L22.4532 266.901L32.9877 266.901L32.9877 256.733ZM21.6152 322.755L11.0748 322.755L11.0748 332.924L21.6152 332.924L21.6152 322.755ZM21.6152 311.755L11.0748 311.755L11.0748 321.923L21.6152 321.923L21.6152 311.755ZM21.6152 300.748L11.0748 300.748L11.0748 310.917L21.6152 310.917L21.6152 300.748ZM15.3234 289.747L11.0748 289.747L11.0748 299.91L21.6152 299.91L21.6152 296.039C21.6152 292.564 18.7983 289.747 15.3234 289.747M21.6152 267.74L11.0748 267.74L11.0748 271.611C11.0748 275.086 13.8923 277.903 17.3666 277.903L21.6152 277.903L21.6152 267.74ZM21.6152 256.733L11.0748 256.733L11.0748 266.901L21.6152 266.901L21.6152 256.733ZM10.2426 322.755L-0.297791 322.755L-0.297791 332.924L10.2426 332.924L10.2426 322.755ZM10.2426 311.755L-0.297791 311.755L-0.297791 321.923L10.2426 321.923L10.2426 311.755ZM10.2426 300.748L-0.297791 300.748L-0.297791 310.917L10.2426 310.917L10.2426 300.748ZM10.2426 289.747L-0.297791 289.747L-0.297791 299.91L10.2426 299.91L10.2426 289.747ZM-1.1358 322.755L-11.6703 322.755L-11.6703 332.924L-1.1358 332.924L-1.1358 322.755ZM-1.1358 311.755L-11.6703 311.755L-11.6703 321.923L-1.1358 321.923L-1.1358 311.755ZM-1.1358 300.748L-11.6703 300.748L-11.6703 310.917L-1.1358 310.917L-1.1358 300.748ZM-1.1358 289.747L-11.6703 289.747L-11.6703 299.91L-1.1358 299.91L-1.1358 289.747ZM-1.1358 278.741L-11.6703 278.741L-11.6703 288.909L-1.1358 288.909L-1.1358 278.741ZM-6.40308 267.74L-6.40308 267.74C-9.31201 267.74 -11.6703 270.098 -11.6703 273.007L-11.6703 277.903L-1.1358 277.903L-1.1358 273.007C-1.1358 270.098 -3.49353 267.74 -6.40308 267.74M-12.5084 322.755L-23.0488 322.755L-23.0488 332.924L-12.5084 332.924L-12.5084 322.755ZM-12.5084 311.755L-23.0488 311.755L-23.0488 321.923L-12.5084 321.923L-12.5084 311.755ZM-12.5084 300.748L-23.0488 300.748L-23.0488 310.917L-12.5084 310.917L-12.5084 300.748ZM-12.5084 289.747L-23.0488 289.747L-23.0488 299.91L-12.5084 299.91L-12.5084 289.747ZM-12.5084 278.741L-23.0488 278.741L-23.0488 288.909L-12.5084 288.909L-12.5084 278.741ZM-23.8809 322.755L-34.4208 322.755L-34.4208 332.924L-23.8809 332.924L-23.8809 322.755ZM-23.8809 311.755L-34.4208 311.755L-34.4208 321.923L-23.8809 321.923L-23.8809 311.755ZM-23.8809 300.748L-34.4208 300.748L-34.4208 310.917L-23.8809 310.917L-23.8809 300.748ZM-23.8809 289.747L-34.4208 289.747L-34.4208 299.91L-23.8809 299.91L-23.8809 289.747ZM-23.8809 278.741L-34.4208 278.741L-34.4208 288.909L-23.8809 288.909L-23.8809 278.741ZM-23.8809 256.733L-34.4213 256.733L-34.4213 266.902L-30.1727 266.902C-26.6978 266.902 -23.8809 264.085 -23.8809 260.61L-23.8809 256.733ZM-35.2594 322.755L-45.7945 322.755L-45.7945 332.924L-35.2594 332.924L-35.2594 322.755ZM-35.2594 311.755L-45.7945 311.755L-45.7945 321.923L-35.2594 321.923L-35.2594 311.755ZM-35.2594 300.748L-45.7945 300.748L-45.7945 310.917L-35.2594 310.917L-35.2594 300.748ZM-35.2594 289.747L-45.7945 289.747L-45.7945 299.91L-35.2594 299.91L-35.2594 289.747ZM-35.2594 278.741L-45.7945 278.741L-45.7945 288.909L-35.2594 288.909L-35.2594 278.741ZM-35.2594 267.74L-45.7945 267.74L-45.7945 277.903L-35.2594 277.903L-35.2594 267.74ZM-35.2594 256.733L-45.7945 256.733L-45.7945 266.901L-35.2594 266.901L-35.2594 256.733ZM-46.632 322.755L-57.1718 322.755L-57.1718 332.924L-46.632 332.924L-46.632 322.755ZM-46.632 311.755L-57.1718 311.755L-57.1718 321.923L-46.632 321.923L-46.632 311.755ZM-46.632 300.748L-57.1718 300.748L-57.1718 310.917L-46.632 310.917L-46.632 300.748ZM-46.632 289.747L-57.1718 289.747L-57.1718 299.91L-46.632 299.91L-46.632 289.747ZM-58.0045 322.755L-68.545 322.755L-68.545 332.924L-58.0045 332.924L-58.0045 322.755ZM-58.0045 311.755L-68.545 311.755L-68.545 321.923L-58.0045 321.923L-58.0045 311.755ZM-58.0045 289.747L-68.545 289.747L-68.545 299.91L-58.0045 299.91L-58.0045 289.747ZM-58.0045 267.74L-68.545 267.74L-68.545 277.903L-64.2963 277.903C-60.8214 277.903 -58.0045 275.086 -58.0045 271.611L-58.0045 267.74ZM-58.0045 256.733L-68.545 256.733L-68.545 266.901L-58.0045 266.901L-58.0045 256.733ZM-69.383 322.755L-79.9175 322.755L-79.9175 332.924L-69.383 332.924L-69.383 322.755ZM-69.383 311.755L-73.6251 311.755C-77.1006 311.755 -79.9175 314.572 -79.9175 318.047L-79.9175 321.923L-69.383 321.923L-69.383 311.755ZM-69.383 289.747L-74.8361 289.747C-77.6424 289.747 -79.9175 292.022 -79.9175 294.829C-79.9175 297.635 -77.6424 299.91 -74.8361 299.91L-69.383 299.91L-69.383 289.747ZM-69.383 267.74L-79.9175 267.74L-79.9175 271.611C-79.9175 275.086 -77.1006 277.903 -73.6251 277.903L-69.383 277.903L-69.383 267.74ZM-69.383 256.733L-79.9175 256.733L-79.9175 266.901L-69.383 266.901L-69.383 256.733ZM-92.1281 322.755L-102.669 322.755L-102.669 332.924L-92.1281 332.924L-92.1281 322.755ZM-92.1281 311.755L-102.669 311.755L-102.669 321.923L-92.1281 321.923L-92.1281 311.755ZM-92.1281 300.748L-102.669 300.748L-102.669 310.917L-92.1281 310.917L-92.1281 300.748ZM-92.1281 289.747L-102.669 289.747L-102.669 299.91L-92.1281 299.91L-92.1281 289.747ZM-92.1281 278.741L-102.669 278.741L-102.669 288.909L-92.1281 288.909L-92.1281 278.741ZM-92.1281 267.74L-102.669 267.74L-102.669 277.903L-92.1281 277.903L-92.1281 267.74ZM-92.1281 256.733L-102.669 256.733L-102.669 266.901L-92.1281 266.901L-92.1281 256.733ZM-103.507 322.755L-114.041 322.755L-114.041 332.924L-103.507 332.924L-103.507 322.755ZM-103.507 311.755L-114.041 311.755L-114.041 321.923L-103.507 321.923L-103.507 311.755ZM-103.507 300.748L-114.041 300.748L-114.041 310.917L-103.507 310.917L-103.507 300.748ZM-103.507 289.747L-114.041 289.747L-114.041 299.91L-103.507 299.91L-103.507 289.747ZM-103.507 278.741L-114.041 278.741L-114.041 288.909L-103.507 288.909L-103.507 278.741ZM-103.507 267.74L-107.749 267.74C-111.224 267.74 -114.041 270.557 -114.041 274.032L-114.041 277.903L-103.507 277.903L-103.507 267.74ZM-114.879 322.755L-125.414 322.755L-125.414 332.924L-114.879 332.924L-114.879 322.755ZM-114.879 311.755L-125.414 311.755L-125.414 321.923L-114.879 321.923L-114.879 311.755ZM-114.879 300.748L-125.414 300.748L-125.414 310.917L-114.879 310.917L-114.879 300.748ZM-126.252 322.755L-136.792 322.755L-136.792 332.924L-126.252 332.924L-126.252 322.755ZM-126.252 311.755L-136.792 311.755L-136.792 321.923L-126.252 321.923L-126.252 311.755ZM-126.252 300.748L-136.792 300.748L-136.792 310.917L-126.252 310.917L-126.252 300.748ZM-126.252 278.741L-136.792 278.741L-136.792 288.909L-132.543 288.909C-129.069 288.909 -126.252 286.092 -126.252 282.617L-126.252 278.741ZM-126.252 267.74L-136.792 267.74L-136.792 277.903L-126.252 277.903L-126.252 267.74ZM-126.252 256.733L-136.792 256.733L-136.792 266.901L-126.252 266.901L-126.252 256.733ZM-137.63 322.755L-148.165 322.755L-148.165 332.924L-137.63 332.924L-137.63 322.755ZM-137.63 311.755L-148.165 311.755L-148.165 321.923L-137.63 321.923L-137.63 311.755ZM-137.63 300.748L-148.165 300.748L-148.165 310.917L-137.63 310.917L-137.63 300.748ZM-137.63 278.741L-148.165 278.741L-148.165 282.617C-148.165 286.092 -145.348 288.909 -141.873 288.909L-137.63 288.909L-137.63 278.741ZM-137.63 267.74L-148.165 267.74L-148.165 277.903L-137.63 277.903L-137.63 267.74ZM-137.63 256.733L-148.165 256.733L-148.165 266.901L-137.63 266.901L-137.63 256.733ZM-149.003 322.755L-159.537 322.755L-159.537 332.924L-149.003 332.924L-149.003 322.755ZM-149.003 311.755L-159.537 311.755L-159.537 321.923L-149.003 321.923L-149.003 311.755ZM-149.003 300.748L-159.537 300.748L-159.537 310.917L-149.003 310.917L-149.003 300.748ZM-160.375 322.755L-170.916 322.755L-170.916 332.924L-160.375 332.924L-160.375 322.755ZM-160.375 311.755L-170.916 311.755L-170.916 321.923L-160.375 321.923L-160.375 311.755ZM-160.375 300.748L-170.916 300.748L-170.916 310.917L-160.375 310.917L-160.375 300.748ZM-160.375 289.747L-170.916 289.747L-170.916 299.91L-160.375 299.91L-160.375 289.747ZM-160.375 278.741L-170.916 278.741L-170.916 288.909L-160.375 288.909L-160.375 278.741ZM-160.375 267.74L-170.916 267.74L-170.916 277.903L-160.375 277.903L-160.375 267.74ZM-160.375 256.733L-170.916 256.733L-170.916 266.901L-160.375 266.901L-160.375 256.733ZM-171.748 322.755L-182.288 322.755L-182.288 332.924L-171.748 332.924L-171.748 322.755ZM-171.748 311.755L-182.288 311.755L-182.288 321.923L-171.748 321.923L-171.748 311.755ZM-171.748 300.748L-182.288 300.748L-182.288 310.917L-171.748 310.917L-171.748 300.748ZM-183.126 322.755L-193.661 322.755L-193.661 332.924L-183.126 332.924L-183.126 322.755ZM-183.126 311.755L-193.661 311.755L-193.661 321.923L-183.126 321.923L-183.126 311.755ZM-183.126 300.748L-193.661 300.748L-193.661 310.917L-183.126 310.917L-183.126 300.748ZM-183.126 278.741L-193.661 278.741L-193.661 288.909L-189.418 288.909C-185.943 288.909 -183.126 286.092 -183.126 282.617L-183.126 278.741ZM-189.418 267.74L-193.661 267.74L-193.661 277.903L-183.126 277.903L-183.126 274.032C-183.126 270.557 -185.943 267.74 -189.418 267.74M-194.499 322.755L-205.039 322.755L-205.039 332.924L-194.499 332.924L-194.499 322.755ZM-194.499 311.755L-205.039 311.755L-205.039 321.923L-194.499 321.923L-194.499 311.755ZM-194.499 300.748L-205.039 300.748L-205.039 310.917L-194.499 310.917L-194.499 300.748ZM-194.499 278.741L-205.039 278.741L-205.039 282.617C-205.039 286.092 -202.222 288.909 -198.747 288.909L-194.499 288.909L-194.499 278.741ZM-194.499 267.74L-198.747 267.74C-202.222 267.74 -205.039 270.557 -205.039 274.032L-205.039 277.903L-194.499 277.903L-194.499 267.74ZM-205.871 322.755L-216.412 322.755L-216.412 332.924L-205.871 332.924L-205.871 322.755ZM-205.871 311.755L-216.412 311.755L-216.412 321.923L-205.871 321.923L-205.871 311.755ZM-205.871 300.748L-216.412 300.748L-216.412 310.917L-205.871 310.917L-205.871 300.748ZM-217.25 322.755L-227.784 322.755L-227.784 332.924L-217.25 332.924L-217.25 322.755ZM-217.25 311.755L-227.784 311.755L-227.784 321.923L-217.25 321.923L-217.25 311.755ZM-217.25 300.748L-227.784 300.748L-227.784 310.917L-217.25 310.917L-217.25 300.748ZM-217.25 289.747L-227.784 289.747L-227.784 299.91L-217.25 299.91L-217.25 289.747ZM-217.25 278.741L-227.784 278.741L-227.784 288.909L-217.25 288.909L-217.25 278.741ZM-217.25 267.74L-227.784 267.74L-227.784 277.903L-217.25 277.903L-217.25 267.74ZM-217.25 256.733L-227.784 256.733L-227.784 266.901L-217.25 266.901L-217.25 256.733ZM-228.622 322.755L-239.163 322.755L-239.163 332.924L-228.622 332.924L-228.622 322.755ZM-228.622 311.755L-239.163 311.755L-239.163 321.923L-228.622 321.923L-228.622 311.755ZM-228.622 300.748L-239.163 300.748L-239.163 310.917L-228.622 310.917L-228.622 300.748ZM-228.622 289.747L-239.163 289.747L-239.163 299.91L-228.622 299.91L-228.622 289.747ZM-228.622 278.741L-239.163 278.741L-239.163 288.909L-228.622 288.909L-228.622 278.741ZM-228.622 267.74L-232.871 267.74C-236.346 267.74 -239.163 270.557 -239.163 274.032L-239.163 277.903L-228.622 277.903L-228.622 267.74ZM-239.995 322.755L-250.535 322.755L-250.535 332.924L-239.995 332.924L-239.995 322.755ZM-239.995 311.755L-250.535 311.755L-250.535 321.923L-239.995 321.923L-239.995 311.755ZM-239.995 300.748L-250.535 300.748L-250.535 310.917L-239.995 310.917L-239.995 300.748ZM-251.373 322.755L-261.908 322.755L-261.908 332.924L-251.373 332.924L-251.373 322.755ZM-251.373 311.755L-261.908 311.755L-261.908 321.923L-251.373 321.923L-251.373 311.755ZM-251.373 300.748L-261.908 300.748L-261.908 310.917L-251.373 310.917L-251.373 300.748ZM-251.373 278.741L-261.908 278.741L-261.908 283.642C-261.908 286.552 -259.55 288.909 -256.641 288.909C-253.732 288.909 -251.373 286.552 -251.373 283.642L-251.373 278.741ZM-251.373 267.74L-261.908 267.74L-261.908 277.903L-251.373 277.903L-251.373 267.74ZM-251.373 256.733L-261.908 256.733L-261.908 266.901L-251.373 266.901L-251.373 256.733ZM-262.746 322.755L-273.286 322.755L-273.286 332.924L-262.746 332.924L-262.746 322.755ZM-262.746 311.755L-273.286 311.755L-273.286 321.923L-262.746 321.923L-262.746 311.755ZM-262.746 300.748L-273.286 300.748L-273.286 310.917L-262.746 310.917L-262.746 300.748ZM-262.746 256.733L-273.286 256.733L-273.286 266.901L-262.746 266.901L-262.746 256.733ZM-274.119 322.755L-284.659 322.755L-284.659 332.924L-274.119 332.924L-274.119 322.755ZM-274.119 311.755L-284.659 311.755L-284.659 321.923L-274.119 321.923L-274.119 311.755ZM-274.119 300.748L-284.659 300.748L-284.659 310.917L-274.119 310.917L-274.119 300.748ZM-274.119 278.741L-284.659 278.741L-284.659 283.639C-284.659 286.55 -282.299 288.909 -279.389 288.909C-276.478 288.909 -274.119 286.55 -274.119 283.639L-274.119 278.741ZM-274.119 267.74L-284.659 267.74L-284.659 277.903L-274.119 277.903L-274.119 267.74ZM-274.119 256.733L-284.659 256.733L-284.659 266.901L-274.119 266.901L-274.119 256.733ZM-285.497 322.755L-296.032 322.755L-296.032 332.924L-285.497 332.924L-285.497 322.755ZM-285.497 311.755L-296.032 311.755L-296.032 321.923L-285.497 321.923L-285.497 311.755ZM-285.497 300.748L-296.032 300.748L-296.032 310.917L-285.497 310.917L-285.497 300.748Z"/>
	<path fill="#010101" transform="matrix(1 0 0 -1 307.867 344.199)" d="M-92.1281 333.809L-102.669 333.809L-102.669 343.978L-92.1281 343.978L-92.1281 333.809ZM-103.507 333.809L-114.041 333.809L-114.041 343.978L-103.507 343.978L-103.507 333.809ZM-114.879 333.809L-125.414 333.809L-125.414 343.978L-114.879 343.978L-114.879 333.809ZM-126.252 333.809L-136.792 333.809L-136.792 343.978L-126.252 343.978L-126.252 333.809ZM-137.63 333.809L-148.165 333.809L-148.165 343.978L-137.63 343.978L-137.63 333.809ZM-149.003 333.809L-159.537 333.809L-159.537 343.978L-149.003 343.978L-149.003 333.809ZM-160.375 333.809L-170.916 333.809L-170.916 343.978L-160.375 343.978L-160.375 333.809ZM-171.748 333.809L-182.288 333.809L-182.288 343.978L-171.748 343.978L-171.748 333.809ZM-183.126 333.809L-193.661 333.809L-193.661 343.978L-183.126 343.978L-183.126 333.809ZM-194.499 333.809L-205.039 333.809L-205.039 343.978L-194.499 343.978L-194.499 333.809ZM-205.871 333.809L-216.412 333.809L-216.412 343.978L-205.871 343.978L-205.871 333.809ZM-217.25 333.809L-227.784 333.809L-227.784 343.978L-217.25 343.978L-217.25 333.809ZM-228.622 333.809L-239.163 333.809L-239.163 343.978L-228.622 343.978L-228.622 333.809ZM-239.995 333.809L-250.535 333.809L-250.535 343.978L-239.995 343.978L-239.995 333.809ZM-251.373 333.809L-261.908 333.809L-261.908 343.978L-251.373 343.978L-251.373 333.809ZM-262.746 333.809L-273.286 333.809L-273.286 343.978L-262.746 343.978L-262.746 333.809ZM-274.119 333.809L-284.659 333.809L-284.659 343.978L-274.119 343.978L-274.119 333.809ZM-285.497 333.809L-296.032 333.809L-296.032 343.978L-285.497 343.978L-285.497 333.809Z"/>
	<path fill="#010101" transform="matrix(1 0 0 -1 307.867 344.199)" d="M112.607 333.809L102.067 333.809L102.067 343.978L112.607 343.978L112.607 333.809ZM101.229 333.809L90.6945 333.809L90.6945 343.978L101.229 343.978L101.229 333.809ZM89.8564 333.809L79.3214 333.809L79.3214 343.978L89.8564 343.978L89.8564 333.809ZM78.4839 333.809L67.9435 333.809L67.9435 343.978L78.4839 343.978L78.4839 333.809ZM67.1054 333.809L56.5709 333.809L56.5709 343.978L67.1054 343.978L67.1054 333.809ZM55.7328 333.809L45.1984 333.809L45.1984 343.978L55.7328 343.978L55.7328 333.809ZM44.3603 333.809L33.8199 333.809L33.8199 343.978L44.3603 343.978L44.3603 333.809ZM32.9877 333.809L22.4473 333.809L22.4473 343.978L32.9877 343.978L32.9877 333.809ZM21.6093 333.809L11.0748 333.809L11.0748 343.978L21.6093 343.978L21.6093 333.809ZM10.2368 333.809L-0.303711 333.809L-0.303711 343.978L10.2368 343.978L10.2368 333.809ZM-1.1358 333.809L-11.6762 333.809L-11.6762 343.978L-1.1358 343.978L-1.1358 333.809ZM-12.5143 333.809L-23.0488 333.809L-23.0488 343.978L-12.5143 343.978L-12.5143 333.809ZM-23.8868 333.809L-34.4273 333.809L-34.4273 343.978L-23.8868 343.978L-23.8868 333.809ZM-35.2594 333.809L-45.7998 333.809L-45.7998 343.978L-35.2594 343.978L-35.2594 333.809ZM-46.6378 333.809L-57.1724 333.809L-57.1724 343.978L-46.6378 343.978L-46.6378 333.809ZM-58.0104 333.809L-68.5508 333.809L-68.5508 343.978L-58.0104 343.978L-58.0104 333.809ZM-69.383 333.809L-79.9234 333.809L-79.9234 343.978L-69.383 343.978L-69.383 333.809ZM-80.7614 333.809L-91.296 333.809L-91.296 343.978L-80.7614 343.978L-80.7614 333.809Z"/>
	<path fill="#010101" transform="matrix(1 0 0 -1 307.867 344.199)" d="M-296.917 333.809L-307.457 333.809L-307.457 343.978L-296.917 343.978L-296.917 333.809Z"/>
	<path fill="#010101" transform="matrix(1 0 0 -1 307.867 344.199)" d="M-296.917 322.755L-307.457 322.755L-307.457 332.924L-296.917 332.924L-296.917 322.755Z"/>
	<path fill="#010101" transform="matrix(1 0 0 -1 307.867 344.199)" d="M-296.964 311.702L-307.504 311.702L-307.504 321.87L-296.964 321.87L-296.964 311.702Z"/>
	<path fill="#010101" transform="matrix(1 0 0 -1 307.867 344.199)" d="M-296.964 300.648L-307.504 300.648L-307.504 310.816L-296.964 310.816L-296.964 300.648Z"/>
	<path fill="#010101" transform="matrix(1 0 0 -1 307.867 344.199)" d="M-297.011 289.594L-307.552 289.594L-307.552 299.763L-297.011 299.763L-297.011 289.594Z"/>
	<path fill="#010101" transform="matrix(1 0 0 -1 307.867 344.199)" d="M-297.011 278.54L-307.552 278.54L-307.552 288.709L-297.011 288.709L-297.011 278.54Z"/>
	<path fill="#010101" transform="matrix(1 0 0 -1 307.867 344.199)" d="M-297.058 267.486L-307.599 267.486L-307.599 277.655L-297.058 277.655L-297.058 267.486Z"/>
	<path fill="#010101" transform="matrix(1 0 0 -1 307.867 344.199)" d="M-297.058 256.432L-307.599 256.432L-307.599 266.601L-297.058 266.601L-297.058 256.432Z"/>
	<path fill="#010101" transform="matrix(1 0 0 -1 307.867 344.199)" d="M-297.106 245.378L-307.646 245.378L-307.646 255.547L-297.106 255.547L-297.106 245.378Z"/>
	<path fill="#010101" transform="matrix(1 0 0 -1 307.867 344.199)" d="M-92.317 245.378L-102.857 245.378L-102.857 255.547L-92.317 255.547L-92.317 245.378ZM-103.695 245.378L-114.23 245.378L-114.23 255.547L-103.695 255.547L-103.695 245.378ZM-115.068 245.378L-125.603 245.378L-125.603 255.547L-115.068 255.547L-115.068 245.378ZM-126.441 245.378L-136.981 245.378L-136.981 255.547L-126.441 255.547L-126.441 245.378ZM-137.819 245.378L-148.353 245.378L-148.353 255.547L-137.819 255.547L-137.819 245.378ZM-149.192 245.378L-159.726 245.378L-159.726 255.547L-149.192 255.547L-149.192 245.378ZM-160.564 245.378L-171.105 245.378L-171.105 255.547L-160.564 255.547L-160.564 245.378ZM-171.937 245.378L-182.477 245.378L-182.477 255.547L-171.937 255.547L-171.937 245.378ZM-183.315 245.378L-193.85 245.378L-193.85 255.547L-183.315 255.547L-183.315 245.378ZM-194.688 245.378L-205.228 245.378L-205.228 255.547L-194.688 255.547L-194.688 245.378ZM-206.06 245.378L-216.601 245.378L-216.601 255.547L-206.06 255.547L-206.06 245.378ZM-217.439 245.378L-227.973 245.378L-227.973 255.547L-217.439 255.547L-217.439 245.378ZM-228.811 245.378L-239.352 245.378L-239.352 255.547L-228.811 255.547L-228.811 245.378ZM-240.184 245.378L-250.724 245.378L-250.724 255.547L-240.184 255.547L-240.184 245.378ZM-251.562 245.378L-262.097 245.378L-262.097 255.547L-251.562 255.547L-251.562 245.378ZM-262.935 245.378L-273.475 245.378L-273.475 255.547L-262.935 255.547L-262.935 245.378ZM-274.307 245.378L-284.848 245.378L-284.848 255.547L-274.307 255.547L-274.307 245.378ZM-285.686 245.378L-296.22 245.378L-296.22 255.547L-285.686 255.547L-285.686 245.378Z"/>
	<path fill="#010101" transform="matrix(1 0 0 -1 307.867 344.199)" d="M112.472 245.378L101.931 245.378L101.931 255.547L112.472 255.547L112.472 245.378ZM101.093 245.378L90.5588 245.378L90.5588 255.547L101.093 255.547L101.093 245.378ZM89.7207 245.378L79.1856 245.378L79.1856 255.547L89.7207 255.547L89.7207 245.378ZM78.3481 245.378L67.8077 245.378L67.8077 255.547L78.3481 255.547L78.3481 245.378ZM66.9697 245.378L56.4352 245.378L56.4352 255.547L66.9697 255.547L66.9697 245.378ZM55.5971 245.378L45.0626 245.378L45.0626 255.547L55.5971 255.547L55.5971 245.378ZM44.2245 245.378L33.6841 245.378L33.6841 255.547L44.2245 255.547L44.2245 245.378ZM32.852 245.378L22.3116 245.378L22.3116 255.547L32.852 255.547L32.852 245.378ZM21.4736 245.378L10.939 245.378L10.939 255.547L21.4736 255.547L21.4736 245.378ZM10.101 245.378L-0.439392 245.378L-0.439392 255.547L10.101 255.547L10.101 245.378ZM-1.27155 245.378L-11.812 245.378L-11.812 255.547L-1.27155 255.547L-1.27155 245.378ZM-12.65 245.378L-23.1845 245.378L-23.1845 255.547L-12.65 255.547L-12.65 245.378ZM-24.0226 245.378L-34.563 245.378L-34.563 255.547L-24.0226 255.547L-24.0226 245.378ZM-35.3951 245.378L-45.9356 245.378L-45.9356 255.547L-35.3951 255.547L-35.3951 245.378ZM-46.7736 245.378L-57.3081 245.378L-57.3081 255.547L-46.7736 255.547L-46.7736 245.378ZM-58.1461 245.378L-68.6866 245.378L-68.6866 255.547L-58.1461 255.547L-58.1461 245.378ZM-69.5187 245.378L-80.0591 245.378L-80.0591 255.547L-69.5187 255.547L-69.5187 245.378ZM-80.8972 245.378L-91.4317 245.378L-91.4317 255.547L-80.8972 255.547L-80.8972 245.378Z"/>
	<path fill="#010101" transform="matrix(1 0 0 -1 307.867 344.199)" d="M237.723 322.755L227.183 322.755L227.183 332.924L237.723 332.924L237.723 322.755ZM226.345 322.755L215.81 322.755L215.81 332.924L226.345 332.924L226.345 322.755ZM214.972 322.755L204.437 322.755L204.437 332.924L214.972 332.924L214.972 322.755ZM203.6 322.755L193.059 322.755L193.059 332.924L203.6 332.924L203.6 322.755ZM192.221 322.755L181.687 322.755L181.687 332.924L192.221 332.924L192.221 322.755ZM180.849 322.755L170.314 322.755L170.314 332.924L180.849 332.924L180.849 322.755ZM169.476 322.755L158.936 322.755L158.936 332.924L169.476 332.924L169.476 322.755ZM158.104 322.755L147.563 322.755L147.563 332.924L158.104 332.924L158.104 322.755ZM146.725 322.755L136.191 322.755L136.191 332.924L146.725 332.924L146.725 322.755ZM135.353 322.755L124.812 322.755L124.812 332.924L135.353 332.924L135.353 322.755ZM123.98 322.755L113.44 322.755L113.44 332.924L123.98 332.924L123.98 322.755ZM112.602 322.755L102.067 322.755L102.067 332.924L112.602 332.924L112.602 322.755ZM101.229 322.755L90.6886 322.755L90.6886 332.924L101.229 332.924L101.229 322.755ZM89.8564 322.755L79.316 322.755L79.316 332.924L89.8564 332.924L89.8564 322.755ZM78.478 322.755L67.9435 322.755L67.9435 332.924L78.478 332.924L78.478 322.755ZM67.1054 322.755L56.565 322.755L56.565 332.924L67.1054 332.924L67.1054 322.755ZM55.7328 322.755L45.1924 322.755L45.1924 332.924L55.7328 332.924L55.7328 322.755ZM44.3544 322.755L33.8199 322.755L33.8199 332.924L44.3544 332.924L44.3544 322.755Z"/>
	<path fill="#010101" transform="matrix(1 0 0 -1 307.867 344.199)" d="M237.723 311.702L227.183 311.702L227.183 321.87L237.723 321.87L237.723 311.702ZM226.345 311.702L215.81 311.702L215.81 321.87L226.345 321.87L226.345 311.702ZM214.972 311.702L204.437 311.702L204.437 321.87L214.972 321.87L214.972 311.702ZM203.6 311.702L193.059 311.702L193.059 321.87L203.6 321.87L203.6 311.702ZM192.221 311.702L181.687 311.702L181.687 321.87L192.221 321.87L192.221 311.702ZM180.849 311.702L170.314 311.702L170.314 321.87L180.849 321.87L180.849 311.702ZM169.476 311.702L158.936 311.702L158.936 321.87L169.476 321.87L169.476 311.702ZM158.104 311.702L147.563 311.702L147.563 321.87L158.104 321.87L158.104 311.702ZM146.725 311.702L136.191 311.702L136.191 321.87L146.725 321.87L146.725 311.702ZM135.353 311.702L124.812 311.702L124.812 321.87L135.353 321.87L135.353 311.702ZM123.98 311.702L113.44 311.702L113.44 321.87L123.98 321.87L123.98 311.702ZM112.602 311.702L102.067 311.702L102.067 321.87L112.602 321.87L112.602 311.702ZM101.229 311.702L90.6886 311.702L90.6886 321.87L101.229 321.87L101.229 311.702ZM89.8564 311.702L79.316 311.702L79.316 321.87L89.8564 321.87L89.8564 311.702ZM78.478 311.702L67.9435 311.702L67.9435 321.87L78.478 321.87L78.478 311.702ZM67.1054 311.702L56.565 311.702L56.565 321.87L67.1054 321.87L67.1054 311.702ZM55.7328 311.702L45.1924 311.702L45.1924 321.87L55.7328 321.87L55.7328 311.702ZM44.3544 311.702L33.8199 311.702L33.8199 321.87L44.3544 321.87L44.3544 311.702Z"/>
	<path fill="#010101" transform="matrix(1 0 0 -1 307.867 344.199)" d="M237.676 300.648L227.136 300.648L227.136 310.816L237.676 310.816L237.676 300.648ZM226.298 300.648L215.763 300.648L215.763 310.816L226.298 310.816L226.298 300.648ZM214.925 300.648L204.39 300.648L204.39 310.816L214.925 310.816L214.925 300.648ZM203.553 300.648L193.012 300.648L193.012 310.816L203.553 310.816L203.553 300.648ZM192.174 300.648L181.64 300.648L181.64 310.816L192.174 310.816L192.174 300.648ZM180.802 300.648L170.267 300.648L170.267 310.816L180.802 310.816L180.802 300.648ZM169.429 300.648L158.889 300.648L158.889 310.816L169.429 310.816L169.429 300.648ZM158.056 300.648L147.516 300.648L147.516 310.816L158.056 310.816L158.056 300.648ZM146.678 300.648L136.143 300.648L136.143 310.816L146.678 310.816L146.678 300.648ZM135.305 300.648L124.765 300.648L124.765 310.816L135.305 310.816L135.305 300.648ZM123.933 300.648L113.392 300.648L113.392 310.816L123.933 310.816L123.933 300.648ZM112.554 300.648L102.02 300.648L102.02 310.816L112.554 310.816L112.554 300.648ZM101.182 300.648L90.6414 300.648L90.6414 310.816L101.182 310.816L101.182 300.648ZM89.8093 300.648L79.2689 300.648L79.2689 310.816L89.8093 310.816L89.8093 300.648ZM78.4308 300.648L67.8963 300.648L67.8963 310.816L78.4308 310.816L78.4308 300.648ZM67.0582 300.648L56.5178 300.648L56.5178 310.816L67.0582 310.816L67.0582 300.648ZM55.6857 300.648L45.1452 300.648L45.1452 310.816L55.6857 310.816L55.6857 300.648ZM44.3072 300.648L33.7726 300.648L33.7726 310.816L44.3072 310.816L44.3072 300.648Z"/>
	<path fill="#010101" transform="matrix(1 0 0 -1 307.867 344.199)" d="M237.676 289.594L227.136 289.594L227.136 299.763L237.676 299.763L237.676 289.594ZM226.298 289.594L215.763 289.594L215.763 299.763L226.298 299.763L226.298 289.594ZM214.925 289.594L204.39 289.594L204.39 299.763L214.925 299.763L214.925 289.594ZM203.553 289.594L193.012 289.594L193.012 299.763L203.553 299.763L203.553 289.594ZM192.174 289.594L181.64 289.594L181.64 299.763L192.174 299.763L192.174 289.594ZM180.802 289.594L170.267 289.594L170.267 299.763L180.802 299.763L180.802 289.594ZM169.429 289.594L158.889 289.594L158.889 299.763L169.429 299.763L169.429 289.594ZM158.056 289.594L147.516 289.594L147.516 299.763L158.056 299.763L158.056 289.594ZM146.678 289.594L136.143 289.594L136.143 299.763L146.678 299.763L146.678 289.594ZM135.305 289.594L124.765 289.594L124.765 299.763L135.305 299.763L135.305 289.594ZM123.933 289.594L113.392 289.594L113.392 299.763L123.933 299.763L123.933 289.594ZM112.554 289.594L102.02 289.594L102.02 299.763L112.554 299.763L112.554 289.594ZM101.182 289.594L90.6414 289.594L90.6414 299.763L101.182 299.763L101.182 289.594ZM89.8093 289.594L79.2689 289.594L79.2689 299.763L89.8093 299.763L89.8093 289.594ZM78.4308 289.594L67.8963 289.594L67.8963 299.763L78.4308 299.763L78.4308 289.594ZM67.0582 289.594L56.5178 289.594L56.5178 299.763L67.0582 299.763L67.0582 289.594ZM55.6857 289.594L45.1452 289.594L45.1452 299.763L55.6857 299.763L55.6857 289.594ZM44.3072 289.594L33.7726 289.594L33.7726 299.763L44.3072 299.763L44.3072 289.594Z"/>
	<path fill="#010101" transform="matrix(1 0 0 -1 307.867 344.199)" d="M237.776 278.788L227.236 278.788L227.236 288.957L237.776 288.957L237.776 278.788ZM226.398 278.788L215.863 278.788L215.863 288.957L226.398 288.957L226.398 278.788ZM215.025 278.788L204.49 278.788L204.49 288.957L215.025 288.957L215.025 278.788ZM203.653 278.788L193.112 278.788L193.112 288.957L203.653 288.957L203.653 278.788ZM192.274 278.788L181.74 278.788L181.74 288.957L192.274 288.957L192.274 278.788ZM180.902 278.788L170.367 278.788L170.367 288.957L180.902 288.957L180.902 278.788ZM169.529 278.788L158.989 278.788L158.989 288.957L169.529 288.957L169.529 278.788ZM158.157 278.788L147.616 278.788L147.616 288.957L158.157 288.957L158.157 278.788ZM146.778 278.788L136.244 278.788L136.244 288.957L146.778 288.957L146.778 278.788ZM135.406 278.788L124.865 278.788L124.865 288.957L135.406 288.957L135.406 278.788ZM124.033 278.788L113.493 278.788L113.493 288.957L124.033 288.957L124.033 278.788ZM112.655 278.788L102.12 278.788L102.12 288.957L112.655 288.957L112.655 278.788ZM101.282 278.788L90.7417 278.788L90.7417 288.957L101.282 288.957L101.282 278.788ZM89.9096 278.788L79.3691 278.788L79.3691 288.957L89.9096 288.957L89.9096 278.788ZM78.5311 278.788L67.9966 278.788L67.9966 288.957L78.5311 288.957L78.5311 278.788ZM67.1585 278.788L56.6181 278.788L56.6181 288.957L67.1585 288.957L67.1585 278.788ZM55.7859 278.788L45.2455 278.788L45.2455 288.957L55.7859 288.957L55.7859 278.788ZM44.4075 278.788L33.873 278.788L33.873 288.957L44.4075 288.957L44.4075 278.788Z"/>
	<path fill="#010101" transform="matrix(1 0 0 -1 307.867 344.199)" d="M237.776 267.735L227.236 267.735L227.236 277.903L237.776 277.903L237.776 267.735ZM226.398 267.735L215.863 267.735L215.863 277.903L226.398 277.903L226.398 267.735ZM215.025 267.735L204.49 267.735L204.49 277.903L215.025 277.903L215.025 267.735ZM203.653 267.735L193.112 267.735L193.112 277.903L203.653 277.903L203.653 267.735ZM192.274 267.735L181.74 267.735L181.74 277.903L192.274 277.903L192.274 267.735ZM180.902 267.735L170.367 267.735L170.367 277.903L180.902 277.903L180.902 267.735ZM169.529 267.735L158.989 267.735L158.989 277.903L169.529 277.903L169.529 267.735ZM158.157 267.735L147.616 267.735L147.616 277.903L158.157 277.903L158.157 267.735ZM146.778 267.735L136.244 267.735L136.244 277.903L146.778 277.903L146.778 267.735ZM135.406 267.735L124.865 267.735L124.865 277.903L135.406 277.903L135.406 267.735ZM124.033 267.735L113.493 267.735L113.493 277.903L124.033 277.903L124.033 267.735ZM112.655 267.735L102.12 267.735L102.12 277.903L112.655 277.903L112.655 267.735ZM101.282 267.735L90.7417 267.735L90.7417 277.903L101.282 277.903L101.282 267.735ZM89.9096 267.735L79.3691 267.735L79.3691 277.903L89.9096 277.903L89.9096 267.735ZM78.5311 267.735L67.9966 267.735L67.9966 277.903L78.5311 277.903L78.5311 267.735ZM67.1585 267.735L56.6181 267.735L56.6181 277.903L67.1585 277.903L67.1585 267.735ZM55.7859 267.735L45.2455 267.735L45.2455 277.903L55.7859 277.903L55.7859 267.735ZM44.4075 267.735L33.873 267.735L33.873 277.903L44.4075 277.903L44.4075 267.735Z"/>
	<path fill="#010101" transform="matrix(1 0 0 -1 307.867 344.199)" d="M237.729 256.681L227.189 256.681L227.189 266.849L237.729 266.849L237.729 256.681ZM226.351 256.681L215.816 256.681L215.816 266.849L226.351 266.849L226.351 256.681ZM214.978 256.681L204.443 256.681L204.443 266.849L214.978 266.849L214.978 256.681ZM203.606 256.681L193.065 256.681L193.065 266.849L203.606 266.849L203.606 256.681ZM192.227 256.681L181.693 256.681L181.693 266.849L192.227 266.849L192.227 256.681ZM180.855 256.681L170.32 256.681L170.32 266.849L180.855 266.849L180.855 256.681ZM169.482 256.681L158.942 256.681L158.942 266.849L169.482 266.849L169.482 256.681ZM158.109 256.681L147.569 256.681L147.569 266.849L158.109 266.849L158.109 256.681ZM146.731 256.681L136.197 256.681L136.197 266.849L146.731 266.849L146.731 256.681ZM135.359 256.681L124.818 256.681L124.818 266.849L135.359 266.849L135.359 256.681ZM123.986 256.681L113.445 256.681L113.445 266.849L123.986 266.849L123.986 256.681ZM112.607 256.681L102.073 256.681L102.073 266.849L112.607 266.849L112.607 256.681ZM101.235 256.681L90.6945 256.681L90.6945 266.849L101.235 266.849L101.235 256.681ZM89.8624 256.681L79.322 256.681L79.322 266.849L89.8624 266.849L89.8624 256.681ZM78.4839 256.681L67.9494 256.681L67.9494 266.849L78.4839 266.849L78.4839 256.681ZM67.1113 256.681L56.5709 256.681L56.5709 266.849L67.1113 266.849L67.1113 256.681ZM55.7388 256.681L45.1984 256.681L45.1984 266.849L55.7388 266.849L55.7388 256.681ZM44.3603 256.681L33.8258 256.681L33.8258 266.849L44.3603 266.849L44.3603 256.681Z"/>
	<path fill="#010101" transform="matrix(1 0 0 -1 307.867 344.199)" d="M317.305 245.266L306.764 245.266L306.764 255.434L317.305 255.434L317.305 245.266ZM305.926 245.266L295.392 245.266L295.392 255.434L305.926 255.434L305.926 245.266ZM294.554 245.266L284.018 245.266L284.018 255.434L294.554 255.434L294.554 245.266ZM283.181 245.266L272.641 245.266L272.641 255.434L283.181 255.434L283.181 245.266ZM271.803 245.266L261.268 245.266L261.268 255.434L271.803 255.434L271.803 245.266ZM260.43 245.266L249.896 245.266L249.896 255.434L260.43 255.434L260.43 245.266ZM249.057 245.266L238.517 245.266L238.517 255.434L249.057 255.434L249.057 245.266ZM237.685 245.266L227.144 245.266L227.144 255.434L237.685 255.434L237.685 245.266ZM226.306 245.266L215.772 245.266L215.772 255.434L226.306 255.434L226.306 245.266ZM214.934 245.266L204.393 245.266L204.393 255.434L214.934 255.434L214.934 245.266ZM203.561 245.266L193.021 245.266L193.021 255.434L203.561 255.434L203.561 245.266ZM192.183 245.266L181.648 245.266L181.648 255.434L192.183 255.434L192.183 245.266ZM180.81 245.266L170.27 245.266L170.27 255.434L180.81 255.434L180.81 245.266ZM169.438 245.266L158.897 245.266L158.897 255.434L169.438 255.434L169.438 245.266ZM158.059 245.266L147.525 245.266L147.525 255.434L158.059 255.434L158.059 245.266ZM146.687 245.266L136.146 245.266L136.146 255.434L146.687 255.434L146.687 245.266ZM135.314 245.266L124.774 245.266L124.774 255.434L135.314 255.434L135.314 245.266ZM123.936 245.266L113.401 245.266L113.401 255.434L123.936 255.434L123.936 245.266Z"/>
	<path fill="#010101" transform="matrix(1 0 0 -1 307.867 344.199)" d="M317.414 278.915L306.88 278.915L306.88 289.084L317.414 289.084L317.414 278.915ZM306.042 278.915L295.502 278.915L295.502 289.084L306.042 289.084L306.042 278.915ZM294.669 278.915L284.129 278.915L284.129 289.084L294.669 289.084L294.669 278.915ZM283.291 278.915L272.756 278.915L272.756 289.084L283.291 289.084L283.291 278.915ZM271.918 278.915L261.378 278.915L261.378 289.084L271.918 289.084L271.918 278.915ZM260.546 278.915L250.005 278.915L250.005 289.084L260.546 289.084L260.546 278.915ZM249.167 278.915L238.633 278.915L238.633 289.084L249.167 289.084L249.167 278.915Z"/>
	<path fill="#010101" transform="matrix(1 0 0 -1 307.867 344.199)" d="M317.414 267.861L306.88 267.861L306.88 278.03L317.414 278.03L317.414 267.861ZM306.042 267.861L295.502 267.861L295.502 278.03L306.042 278.03L306.042 267.861ZM294.669 267.861L284.129 267.861L284.129 278.03L294.669 278.03L294.669 267.861ZM283.291 267.861L272.756 267.861L272.756 278.03L283.291 278.03L283.291 267.861ZM271.918 267.861L261.378 267.861L261.378 278.03L271.918 278.03L271.918 267.861ZM260.546 267.861L250.005 267.861L250.005 278.03L260.546 278.03L260.546 267.861ZM249.167 267.861L238.633 267.861L238.633 278.03L249.167 278.03L249.167 267.861Z"/>
	<path fill="#010101" transform="matrix(1 0 0 -1 307.867 344.199)" d="M317.367 256.807L306.833 256.807L306.833 266.976L317.367 266.976L317.367 256.807ZM305.995 256.807L295.454 256.807L295.454 266.976L305.995 266.976L305.995 256.807ZM294.622 256.807L284.082 256.807L284.082 266.976L294.622 266.976L294.622 256.807ZM283.244 256.807L272.709 256.807L272.709 266.976L283.244 266.976L283.244 256.807ZM271.871 256.807L261.331 256.807L261.331 266.976L271.871 266.976L271.871 256.807ZM260.499 256.807L249.958 256.807L249.958 266.976L260.499 266.976L260.499 256.807ZM249.12 256.807L238.586 256.807L238.586 266.976L249.12 266.976L249.12 256.807Z"/>
	<path fill="#010101" transform="matrix(1 0 0 -1 307.867 344.199)" d="M317.343 333.739L306.803 333.739L306.803 343.908L317.343 343.908L317.343 333.739ZM305.965 333.739L295.43 333.739L295.43 343.908L305.965 343.908L305.965 333.739ZM294.592 333.739L284.057 333.739L284.057 343.908L294.592 343.908L294.592 333.739ZM283.219 333.739L272.679 333.739L272.679 343.908L283.219 343.908L283.219 333.739ZM271.841 333.739L261.307 333.739L261.307 343.908L271.841 343.908L271.841 333.739ZM260.468 333.739L249.934 333.739L249.934 343.908L260.468 343.908L260.468 333.739ZM249.096 333.739L238.555 333.739L238.555 343.908L249.096 343.908L249.096 333.739ZM237.723 333.739L227.183 333.739L227.183 343.908L237.723 343.908L237.723 333.739ZM226.345 333.739L215.81 333.739L215.81 343.908L226.345 343.908L226.345 333.739ZM214.972 333.739L204.432 333.739L204.432 343.908L214.972 343.908L214.972 333.739ZM203.6 333.739L193.059 333.739L193.059 343.908L203.6 343.908L203.6 333.739ZM192.221 333.739L181.687 333.739L181.687 343.908L192.221 343.908L192.221 333.739ZM180.849 333.739L170.308 333.739L170.308 343.908L180.849 343.908L180.849 333.739ZM169.476 333.739L158.936 333.739L158.936 343.908L169.476 343.908L169.476 333.739ZM158.098 333.739L147.563 333.739L147.563 343.908L158.098 343.908L158.098 333.739ZM146.725 333.739L136.185 333.739L136.185 343.908L146.725 343.908L146.725 333.739ZM135.353 333.739L124.812 333.739L124.812 343.908L135.353 343.908L135.353 333.739ZM123.974 333.739L113.44 333.739L113.44 343.908L123.974 343.908L123.974 333.739Z"/>
	<path fill="#010101" transform="matrix(1 0 0 -1 307.867 344.199)" d="M317.448 322.52L306.914 322.52L306.914 332.688L317.448 332.688L317.448 322.52ZM306.076 322.52L295.535 322.52L295.535 332.688L306.076 332.688L306.076 322.52ZM294.703 322.52L284.162 322.52L284.162 332.688L294.703 332.688L294.703 322.52ZM283.324 322.52L272.79 322.52L272.79 332.688L283.324 332.688L283.324 322.52ZM271.952 322.52L261.411 322.52L261.411 332.688L271.952 332.688L271.952 322.52ZM260.579 322.52L250.039 322.52L250.039 332.688L260.579 332.688L260.579 322.52ZM249.201 322.52L238.666 322.52L238.666 332.688L249.201 332.688L249.201 322.52Z"/>
	<path fill="#010101" transform="matrix(1 0 0 -1 307.867 344.199)" d="M317.548 311.714L307.014 311.714L307.014 321.883L317.548 321.883L317.548 311.714ZM306.176 311.714L295.635 311.714L295.635 321.883L306.176 321.883L306.176 311.714ZM294.803 311.714L284.263 311.714L284.263 321.883L294.803 321.883L294.803 311.714ZM283.425 311.714L272.89 311.714L272.89 321.883L283.425 321.883L283.425 311.714ZM272.052 311.714L261.512 311.714L261.512 321.883L272.052 321.883L272.052 311.714ZM260.68 311.714L250.139 311.714L250.139 321.883L260.68 321.883L260.68 311.714ZM249.301 311.714L238.767 311.714L238.767 321.883L249.301 321.883L249.301 311.714Z"/>
	<path fill="#010101" transform="matrix(1 0 0 -1 307.867 344.199)" d="M317.548 300.66L307.014 300.66L307.014 310.829L317.548 310.829L317.548 300.66ZM306.176 300.66L295.635 300.66L295.635 310.829L306.176 310.829L306.176 300.66ZM294.803 300.66L284.263 300.66L284.263 310.829L294.803 310.829L294.803 300.66ZM283.425 300.66L272.89 300.66L272.89 310.829L283.425 310.829L283.425 300.66ZM272.052 300.66L261.512 300.66L261.512 310.829L272.052 310.829L272.052 300.66ZM260.68 300.66L250.139 300.66L250.139 310.829L260.68 310.829L260.68 300.66ZM249.301 300.66L238.767 300.66L238.767 310.829L249.301 310.829L249.301 300.66Z"/>
	<path fill="#010101" transform="matrix(1 0 0 -1 307.867 344.199)" d="M317.501 289.607L306.967 289.607L306.967 299.775L317.501 299.775L317.501 289.607ZM306.129 289.607L295.588 289.607L295.588 299.775L306.129 299.775L306.129 289.607ZM294.756 289.607L284.216 289.607L284.216 299.775L294.756 299.775L294.756 289.607ZM283.378 289.607L272.843 289.607L272.843 299.775L283.378 299.775L283.378 289.607ZM272.005 289.607L261.465 289.607L261.465 299.775L272.005 299.775L272.005 289.607ZM260.632 289.607L250.092 289.607L250.092 299.775L260.632 299.775L260.632 289.607ZM249.254 289.607L238.719 289.607L238.719 299.775L249.254 299.775L249.254 289.607Z"/>
</svg>
