<?xml version="1.0" encoding="utf-8" ?>
<svg xmlns="http://www.w3.org/2000/svg" xmlns:xlink="http://www.w3.org/1999/xlink" width="800" height="188">
	<path transform="matrix(1 0 0 -1 447.2 148.516)" d="M54.1201 54.6708L54.1201 55.1587C54.1201 61.2207 59.0333 66.1339 65.0953 66.1339L105.459 66.1339L105.459 96.1063L65.0953 96.1063C59.0333 96.1063 54.1201 101.021 54.1201 107.083L54.1201 148.516L24.1477 148.516L24.1477 -38.8006L54.1201 -38.8006L54.1201 2.746C54.1201 8.80593 59.0333 13.7212 65.0953 13.7212L91.297 13.7212C97.359 13.7212 102.272 8.80593 102.272 2.746L102.272 -38.8006L132.246 -38.8006L132.246 43.7121L65.0973 43.6956C59.0353 43.6946 54.1201 48.6078 54.1201 54.6708"/>
	<path transform="matrix(1 0 0 -1 447.2 148.516)" d="M315.338 13.6727L315.338 69.2487L285.366 69.2487L285.366 54.7314C285.366 48.6705 280.452 43.7562 274.391 43.7562L232.909 43.7562L232.909 43.6893L232.909 13.717L232.909 2.14784C232.909 -3.91416 227.995 -8.8284 221.934 -8.8284L221.835 -8.8284C215.773 -8.8284 210.86 -3.91416 210.86 2.14784L210.86 16.2596L155.72 16.2596L155.72 -13.7128L169.67 -13.7128C175.732 -13.7128 180.645 -18.627 180.645 -24.689L180.645 -38.8007L262.881 -38.741L262.881 2.73252C262.881 8.79761 267.8 13.7129 273.866 13.7077L315.338 13.6727Z"/>
	<path transform="matrix(1 0 0 -1 447.2 148.516)" d="M-55.4281 -38.8004L0.584362 -38.8004L0.584362 -8.81978L-14.4723 -8.81978C-20.5343 -8.81978 -25.4475 -3.90554 -25.4475 2.15542L-25.4475 69.2481L-133.353 69.2481L-133.353 -38.7715L-103.38 -38.7715L-103.38 28.3016C-103.38 34.3625 -98.4663 39.2768 -92.4043 39.2768L-66.3971 39.2768C-60.3351 39.2768 -55.4209 34.3615 -55.4219 28.3005L-55.4281 -38.8004Z"/>
	<path transform="matrix(1 0 0 -1 447.2 148.516)" d="M-287.477 -38.8004L-287.477 -8.82905L-302.284 -8.82905C-308.345 -8.82905 -313.26 -3.91378 -313.26 2.14719L-313.26 69.2193L-447.2 69.2481L-447.2 -38.8004L-417.227 -38.8004L-417.227 28.2758C-417.227 34.3368 -412.313 39.25 -406.252 39.25L-406.131 39.25C-400.069 39.25 -395.155 34.3368 -395.155 28.2748L-395.155 -12.1673L-365.182 -12.1673L-365.182 28.2748C-365.182 34.3368 -360.269 39.25 -354.207 39.25C-348.146 39.25 -343.232 34.3368 -343.232 28.2748L-343.232 -38.8004L-287.477 -38.8004Z"/>
	<path transform="matrix(1 0 0 -1 447.2 148.516)" d="M-234.081 2.17667L-234.081 28.2374C-234.081 34.2994 -229.168 39.2126 -223.106 39.2126L-197.711 39.2126C-191.65 39.2126 -186.736 34.2994 -186.736 28.2374L-186.736 2.17667C-186.736 -3.88533 -191.65 -8.79854 -197.711 -8.79854L-223.106 -8.79854C-229.168 -8.79854 -234.081 -3.88533 -234.081 2.17667M-156.764 69.2487L-264.053 69.2487L-264.053 -38.7709L-156.764 -38.7709L-156.764 69.2487Z"/>
	<path transform="matrix(1 0 0 -1 447.2 148.516)" d="M342.48 50.6639C337.962 50.6639 334.289 54.3913 334.289 58.9947C334.289 63.5723 337.962 67.3028 342.48 67.3028C347.001 67.3028 350.672 63.5723 350.672 58.9947C350.672 54.3913 347.001 50.6639 342.48 50.6639M342.48 69.1937C336.832 69.1937 332.253 64.6171 332.253 58.9947C332.253 53.3455 336.832 48.7689 342.48 48.7689C348.129 48.7689 352.707 53.3455 352.707 58.9947C352.707 64.6171 348.129 69.1937 342.48 69.1937"/>
	<path transform="matrix(1 0 0 -1 447.2 148.516)" d="M343.752 59.476L340.445 59.476L340.445 62.9223L343.752 62.9223C344.823 62.9223 345.504 62.4694 345.504 61.2002C345.504 59.9268 344.627 59.476 343.752 59.476M347.592 61.2002C347.592 63.4298 346.097 64.8709 343.723 64.8709L338.327 64.8709L338.327 53.627L340.445 53.627L340.445 57.5273L343.188 57.5273L345.221 53.6003L347.649 53.6003L345.249 57.7816C346.661 58.2911 347.592 59.5892 347.592 61.2002"/>
</svg>
